# xmcd CD database file
#
# Track frame offsets:
#	151
#	20923
#	40670
#	62751
#	87174
#	109261
#	134434
#	151963
#	176795
#	194646
#	225181
#	242345
#
# Disc length: 3611 seconds
#
# Revision: 0
# Processed by: cddbd v1.5PL3 Copyright (c) Steve Scherf et al.
# Submitted via: CDex 1.50
#
DISCID=9a0e190c
DTITLE=New Orleans Jazz Vipers - New Orleans Jazz Vipers
DYEAR=1900
DGENRE=Jazz
TTITLE0=Mean to Me
TTITLE1=Blue Drag
TTITLE2=If I Could Be with You (One Hour Tonight)
TTITLE3=Digga-Digga-Do
TTITLE4=Foolin' Myself
TTITLE5=The Mooche
TTITLE6=Between the Devil and the Deep Blue Sea
TTITLE7=When It's Sleepytime Down South
TTITLE8=Somebody Loves Me
TTITLE9=Blues in My Heart
TTITLE10=Bei Mir Bist Du Schon
TTITLE11=Evenin'
EXTD=
EXTT0=
EXTT1=
EXTT2=
EXTT3=
EXTT4=
EXTT5=
EXTT6=
EXTT7=
EXTT8=
EXTT9=
EXTT10=
EXTT11=
PLAYORDER=
